<svg id="Ebene_1" data-name="Ebene 1" xmlns="http://www.w3.org/2000/svg" viewBox="0 0 719.39 586.99"><defs><style>.cls-1{fill:#eb6c4b;}.cls-2{fill:#fff;}</style></defs><polygon class="cls-1" points="181.08 482.95 0 586.99 75.54 428.07 181.08 482.95"/><ellipse class="cls-1" cx="359.89" cy="283.97" rx="359.5" ry="283.97"/><path class="cls-2" d="M465.51,414.27a8.87,8.87,0,0,1,1.42,4.63q.4,5.7-2.07,9a75,75,0,0,1-12.57,13.39,26.86,26.86,0,0,1-15.4,6q-7.27.53-11.29-3.41T421,432q-.3-4,.95-14.41,1.2-9.12.95-12.54c-.11-1.52-.69-2.24-1.74-2.17-1.23.09-2.87,1.82-4.92,5.17a70,70,0,0,0-5.93,13.12A102.65,102.65,0,0,0,406,438.12q-1.87,11.61-12.57,12.39-4.29.32-5.86-2.66t-2.16-11q-.35-4.56-.39-7.28l-.69-11.42a248,248,0,0,1,1.14-46.11q2.76-24.15,10.35-41t19.85-17.72a12.59,12.59,0,0,1,11,4.85q4.47,5.34,5.13,14.33,1.05,14.4-6.23,30.49t-24.74,38.16q.1,7.44.68,15.29a82.2,82.2,0,0,1,9-20.52q5.22-8.06,10.61-11.75t10.1-4q9.27-.68,9.95,8.59.41,5.56-1.67,20.34-1.8,12.6-1.51,16.6.42,5.7,4.56,5.4,2.85-.21,6.51-4a113.44,113.44,0,0,0,9.66-12.1,5,5,0,0,1,3.7-2.28A3.3,3.3,0,0,1,465.51,414.27Zm-57-78.78a123.88,123.88,0,0,0-4.62,20.26,266.06,266.06,0,0,0-2.79,27.52,102,102,0,0,0,13-23.74q4.89-12.69,4.15-22.67a19.25,19.25,0,0,0-1.5-6.92c-.79-1.57-1.8-2.3-3-2.21Q411.09,327.91,408.5,335.49Z" transform="translate(-279.61 -184.07)"/><path class="cls-2" d="M526.13,409.84a9,9,0,0,1,1.41,4.63c.28,3.8-.41,6.82-2.06,9q-4.82,6.8-14,12.92a41.48,41.48,0,0,1-20.22,6.93q-15,1.09-23.84-6.43t-9.89-21.65a41.39,41.39,0,0,1,2.79-18.62,34,34,0,0,1,10.5-14.32A29,29,0,0,1,487,376.13q8.27-.6,13.62,3.95t6,13a23.08,23.08,0,0,1-5.83,17.41q-6.54,7.57-23.07,12.94,4,6.3,14,5.57,6.42-.47,14.29-5.56a48.33,48.33,0,0,0,13.33-12.8,5.07,5.07,0,0,1,3.71-2.28A3.32,3.32,0,0,1,526.13,409.84Zm-49-12.77a28.57,28.57,0,0,0-2.55,15.1l0,.28q8.26-2.61,12.82-6.95t4.18-9.63a6.26,6.26,0,0,0-1.82-4.24,5.22,5.22,0,0,0-4.18-1.34C482.11,390.54,479.29,392.81,477.16,397.07Z" transform="translate(-279.61 -184.07)"/><path class="cls-2" d="M577.18,406.11a8.87,8.87,0,0,1,1.42,4.63q.4,5.7-2.07,9a61.35,61.35,0,0,1-12.43,13.38,28.61,28.61,0,0,1-16,6q-12.55.92-19.45-10.05t-8.22-29.08q-1.26-17.4,1.6-40t10.47-39.19q7.61-16.62,19.73-17.51,6.84-.5,11.23,5.56t5.25,17.9q1.25,17-6.54,40.05a217.82,217.82,0,0,1-22.29,46.22c1,3.85,2.25,6.56,3.89,8.11a7.74,7.74,0,0,0,6.18,2.05,16.54,16.54,0,0,0,10-4.1q4.17-3.68,10.43-12.3a5,5,0,0,1,3.7-2.28A3.3,3.3,0,0,1,577.18,406.11Zm-33.58-76A195.74,195.74,0,0,0,538.47,360a212.36,212.36,0,0,0-1,33.91,184.21,184.21,0,0,0,13.67-34.62q4.77-17.19,3.76-31-.8-10.83-4.79-10.55Q546.87,318,543.6,330.13Z" transform="translate(-279.61 -184.07)"/><path class="cls-2" d="M628.24,402.38a8.88,8.88,0,0,1,1.41,4.63q.42,5.7-2.06,9a61.6,61.6,0,0,1-12.43,13.38,28.64,28.64,0,0,1-16,6q-12.54.91-19.44-10.05t-8.22-29.08q-1.28-17.4,1.6-40t10.47-39.2q7.6-16.6,19.72-17.5,6.86-.5,11.23,5.56t5.26,17.9q1.23,17-6.54,40.05A218.79,218.79,0,0,1,591,409.4q1.42,5.78,3.89,8.11a7.75,7.75,0,0,0,6.17,2.05,16.57,16.57,0,0,0,10-4.1q4.17-3.68,10.42-12.3a5,5,0,0,1,3.71-2.28A3.32,3.32,0,0,1,628.24,402.38Zm-33.58-76a193.31,193.31,0,0,0-5.13,29.91,213.55,213.55,0,0,0-1,33.91,184.53,184.53,0,0,0,13.68-34.62q4.75-17.19,3.75-31-.79-10.83-4.78-10.55Q597.92,314.26,594.66,326.4Z" transform="translate(-279.61 -184.07)"/><path class="cls-2" d="M634,428.7a26.23,26.23,0,0,1-9.72-10.41,36.27,36.27,0,0,1-4.07-14.47,44.39,44.39,0,0,1,2.65-19.62A33,33,0,0,1,633,370.13a27.16,27.16,0,0,1,15.34-5.92A24.5,24.5,0,0,1,663,367.36a26,26,0,0,1,9.79,10.4,36.27,36.27,0,0,1,4.07,14.47,43.66,43.66,0,0,1-2.72,19.62,33.32,33.32,0,0,1-10.23,14.09,27.33,27.33,0,0,1-15.27,5.92A24.2,24.2,0,0,1,634,428.7Zm22.9-18.24q3-5.52,2.23-15.65-.58-7.83-3.72-11.63t-7.14-3.49q-5.13.38-8.1,5.83T638,401.24q.6,8.13,3.73,11.77a8.59,8.59,0,0,0,7.41,3.33Q654,416,656.93,410.46Z" transform="translate(-279.61 -184.07)"/><path class="cls-2" d="M502.78,570.12a4,4,0,0,1,3.39,1.19,6.09,6.09,0,0,1,1.42,3.77,12.16,12.16,0,0,1-1.21,7,9.65,9.65,0,0,1-4.87,4,44.8,44.8,0,0,1-13.82,3.16,40,40,0,0,1-12-.84q-3.64,7-8.12,14.5-5.12,8.53-8.95,11.84a15.2,15.2,0,0,1-9,3.66,9.7,9.7,0,0,1-9-3.79q-3.24-4.2-4.7-14.28L434.55,590A137.15,137.15,0,0,1,428,608.85q-3,6.54-6.35,9.22a14.15,14.15,0,0,1-8,3,10.83,10.83,0,0,1-9.53-3.89q-3.69-4.32-5.26-14.1-3.17-19.85-4.26-34.82l-.37-5c-.13-3.14.56-5.39,2.09-6.75s3.9-2.15,7.14-2.38q3.71-.27,5.61,1.24c1.27,1,2,2.79,2.18,5.36q1.2,16.4,5.11,42.49,8.22-21.09,14.73-43.8c.83-2.93,2-4.94,3.35-6.05a9.29,9.29,0,0,1,5.24-1.89c2.57-.19,4.39.21,5.47,1.18s1.71,2.79,1.9,5.45q1.2,16.41,5.11,42.5,7.63-13.32,11.36-21.19a21.21,21.21,0,0,1-2.86-9.69,22,22,0,0,1,1.45-9.56,19.85,19.85,0,0,1,5.31-7.85,13.49,13.49,0,0,1,8.2-3.47,8.54,8.54,0,0,1,6.92,2.44c1.85,1.82,2.92,4.59,3.19,8.3q.46,6.42-2.35,14.94a103.18,103.18,0,0,0,14.25-3.19l3.79-1A5.29,5.29,0,0,1,502.78,570.12Z" transform="translate(-279.61 -184.07)"/><path class="cls-2" d="M566.87,578.92a8.79,8.79,0,0,1,1.41,4.63c.28,3.8-.41,6.82-2.06,9q-4.82,6.79-14,12.92A41.41,41.41,0,0,1,532,612.44q-15,1.09-23.84-6.43t-9.9-21.65a41.25,41.25,0,0,1,2.8-18.62,34,34,0,0,1,10.49-14.32,29,29,0,0,1,16.25-6.21q8.28-.6,13.63,4t6,13a23.11,23.11,0,0,1-5.82,17.41q-6.56,7.58-23.07,12.94,4,6.3,14,5.57,6.42-.46,14.29-5.56a48.37,48.37,0,0,0,13.34-12.8,5,5,0,0,1,3.7-2.28A3.32,3.32,0,0,1,566.87,578.92Zm-49-12.77a28.77,28.77,0,0,0-2.55,15.1l0,.28q8.26-2.61,12.83-6.95c3-2.9,4.43-6.11,4.17-9.63a6.21,6.21,0,0,0-1.82-4.24,5.21,5.21,0,0,0-4.18-1.34C522.85,559.62,520,561.89,517.9,566.15Z" transform="translate(-279.61 -184.07)"/><path class="cls-2" d="M565.44,603.54q-5.75-6-6.5-16.44a46.42,46.42,0,0,1,3.69-22,45.15,45.15,0,0,1,12.85-17.43,31.75,31.75,0,0,1,18.16-7.57c2.09-.15,3.53.15,4.3.91a10.33,10.33,0,0,1,2.1,4.22,33.21,33.21,0,0,1,6.23-1q7-.51,7.35,4.48.23,3-1.09,14.42-2.09,16.64-1.62,23.06a5.24,5.24,0,0,0,1.32,3.34,3.44,3.44,0,0,0,2.88,1.08c1.8-.13,3.91-1.45,6.3-4a121.74,121.74,0,0,0,9.59-12.1,5,5,0,0,1,3.7-2.28,3.31,3.31,0,0,1,3,1.5,8.79,8.79,0,0,1,1.41,4.63c.28,3.8-.41,6.82-2.06,9a72.1,72.1,0,0,1-11.51,13.17q-6.2,5.48-12.33,5.92a13.33,13.33,0,0,1-8.86-2.58,19.62,19.62,0,0,1-6.56-8.34Q591.3,608.1,580,608.93A17.4,17.4,0,0,1,565.44,603.54ZM589.83,590a24.15,24.15,0,0,0,3.42-10.14l3.36-26.63a17.39,17.39,0,0,0-10.73,5.3,30.42,30.42,0,0,0-7.22,12.07,38.72,38.72,0,0,0-1.89,15.34c.22,2.95,1,5.09,2.27,6.43a6.07,6.07,0,0,0,5.07,1.78C586.2,594,588.11,592.61,589.83,590Z" transform="translate(-279.61 -184.07)"/><path class="cls-2" d="M698.36,569.31a8.87,8.87,0,0,1,1.42,4.63c.27,3.8-.42,6.82-2.07,9a60.93,60.93,0,0,1-12.5,13.39,29.45,29.45,0,0,1-16.33,6.07q-29.1,2.12-32.09-38.81-.45-6.27-.5-12.72l-5.56.4q-4.28.32-5.89-1.14c-1.07-1-1.69-2.6-1.86-4.89q-.59-8,5.83-8.45l8.13-.6A138.89,138.89,0,0,1,642.27,507q4-13.33,10.54-21.56t14.62-8.81a10.7,10.7,0,0,1,9.8,4.59q3.81,5,4.39,13,1.62,22.1-15.72,39.86l16-1.17a4.5,4.5,0,0,1,3.35.76c.71.62,1.14,1.83,1.27,3.63q.72,9.85-15.4,11l-17.4,1.27q.24,7.15.53,11.15,1.08,14.84,5,20.57t11.49,5.18A17.09,17.09,0,0,0,681.3,582a87.21,87.21,0,0,0,10.31-11.94,5,5,0,0,1,3.7-2.28A3.3,3.3,0,0,1,698.36,569.31Zm-38.17-73a75.89,75.89,0,0,0-3.9,15.2,197.92,197.92,0,0,0-2.39,21.32,48.67,48.67,0,0,0,11.43-17.25q3.54-9.36,3-16.78-.62-8.42-3.75-8.18Q662.44,490.78,660.19,496.32Z" transform="translate(-279.61 -184.07)"/><path class="cls-2" d="M774.52,563.75a8.79,8.79,0,0,1,1.41,4.63q.42,5.7-2.06,9a75.72,75.72,0,0,1-12.57,13.39,26.86,26.86,0,0,1-15.41,6q-7.27.53-11.29-3.41T730,581.48q-.29-4,1-14.41a74.63,74.63,0,0,0,.95-12.54c-.11-1.52-.69-2.24-1.74-2.17q-1.86.14-4.93,5.17a70,70,0,0,0-5.92,13.12,102.4,102.4,0,0,0-4.35,17Q713.1,599.21,702.39,600q-4.27.32-5.85-2.66c-1.06-2-1.78-5.63-2.17-11q-.33-4.56-.39-7.29l-.69-11.42a248,248,0,0,1,1.15-46.1q2.76-24.15,10.34-41t19.86-17.72a12.56,12.56,0,0,1,11,4.85q4.49,5.34,5.14,14.33,1.05,14.4-6.24,30.49t-24.74,38.15q.12,7.45.69,15.3a82.2,82.2,0,0,1,9-20.52q5.22-8.06,10.61-11.75t10.1-4q9.27-.68,10,8.59.4,5.57-1.67,20.34-1.8,12.6-1.51,16.6c.28,3.8,1.79,5.6,4.55,5.4,1.9-.14,4.08-1.47,6.52-4a114.73,114.73,0,0,0,9.66-12.1,5,5,0,0,1,3.7-2.28A3.31,3.31,0,0,1,774.52,563.75ZM717.5,485a125.07,125.07,0,0,0-4.61,20.26,266.06,266.06,0,0,0-2.79,27.52,102,102,0,0,0,13-23.74q4.88-12.69,4.15-22.67a19.17,19.17,0,0,0-1.51-6.92c-.78-1.57-1.79-2.3-3-2.21Q720.11,477.39,717.5,485Z" transform="translate(-279.61 -184.07)"/><path class="cls-2" d="M835.13,559.32a8.87,8.87,0,0,1,1.42,4.63c.27,3.8-.41,6.81-2.07,9q-4.8,6.79-14,12.92a41.41,41.41,0,0,1-20.21,6.93q-15,1.1-23.84-6.43t-9.9-21.65a41.23,41.23,0,0,1,2.8-18.62,33.91,33.91,0,0,1,10.5-14.32A28.87,28.87,0,0,1,796,525.61q8.26-.6,13.62,3.95t6,13A23.18,23.18,0,0,1,809.8,560q-6.54,7.57-23.07,12.94,4,6.3,14,5.57,6.42-.47,14.29-5.56a48.33,48.33,0,0,0,13.33-12.8,5,5,0,0,1,3.7-2.28A3.3,3.3,0,0,1,835.13,559.32Zm-49-12.77a28.67,28.67,0,0,0-2.56,15.1l0,.28q8.26-2.61,12.82-7t4.17-9.62a6.21,6.21,0,0,0-1.81-4.24,5.24,5.24,0,0,0-4.19-1.34C791.11,540,788.29,542.29,786.17,546.55Z" transform="translate(-279.61 -184.07)"/><path class="cls-2" d="M891.11,540.53a7.5,7.5,0,0,1,2.61,5.33,10.76,10.76,0,0,1-.56,4.06,24.3,24.3,0,0,1-5.77,9.31,13.69,13.69,0,0,1-8.87,4.23,9.09,9.09,0,0,1-7-2.36,10.56,10.56,0,0,1-3.35-7.5c-.13-1.8-.18-3.76-.14-5.86a31.06,31.06,0,0,0,.06-3.16,2.6,2.6,0,0,0-.63-1.68,1.59,1.59,0,0,0-1.25-.48q-2,.15-5.07,5.17a70.47,70.47,0,0,0-5.92,13.13,102.16,102.16,0,0,0-4.36,16.95q-1.07,7-2.9,9.39t-6.39,2.76q-5.43.39-8.05-5.15T830,566.58A116.76,116.76,0,0,1,832.7,531a10.78,10.78,0,0,1,3.77-6.37q2.78-2.13,8.06-2.52a8,8,0,0,1,4,.42,3,3,0,0,1,1.34,2.63q.17,2.28-1.39,10.42-1,5.82-1.55,10.15a104.7,104.7,0,0,0-.66,10.66,81.19,81.19,0,0,1,9.1-20.74q5.28-8.13,10.61-11.81t9.88-4a8.32,8.32,0,0,1,6.52,1.89c1.59,1.46,2.49,3.71,2.72,6.75a63.58,63.58,0,0,1-.82,10.39l1.28-.1A7.34,7.34,0,0,1,891.11,540.53Z" transform="translate(-279.61 -184.07)"/><path class="cls-2" d="M907.44,581.56a12.64,12.64,0,0,1-3.86-8.75c-.32-4.27.65-7.79,2.88-10.53s5.55-4.28,9.92-4.6q6.27-.45,9.71,2.38c2.29,1.89,3.58,4.82,3.87,8.82q.48,6.55-2.94,10.75c-2.29,2.8-5.56,4.35-9.84,4.66S909.75,583.69,907.44,581.56Zm7.87-32.69a4.52,4.52,0,0,1-2.15-3.86l.06-1.15q1.26-16.14,3.9-36.85t5.13-35.78q1.62-9.3,11.74-10,9.13-.66,9.56,5.18a11.06,11.06,0,0,1-.22,2.89q-2.61,15.39-7.17,37.3t-9,38.15q-1.25,4.68-7.08,5.1A8,8,0,0,1,915.31,548.87Z" transform="translate(-279.61 -184.07)"/></svg>